#!OML:ASF I:\Actors\actors\Patient Classification 1\Patient 1\Session 1\Subject1.ASF
:FULLY-SPECIFIED
:DEGREES
165
root -0.564482 17.4807 8.19623 8.67632 -0.482325 -5.53112
lowerback 3.49427 0.730566 4.33013
upperback -10.7141 1.52669 0.6583
thorax -13.5524 0.316966 -1.92282
lowerneck -9.79023 -6.05198 -4.39109
upperneck 19.9631 -9.29854 7.70503
head 8.37952 -4.03202 2.3269
rclavicle 2.17172e-014 -1.86858e-014
rhumerus -49.6759 -7.11161 -79.3846
rradius 36.6164
rwrist 23.4154
rhand 17.9003 -32.2329
rfingers 7.12502
rthumb 42.5743 -56.6276
lclavicle 2.17172e-014 -1.86858e-014
lhumerus -52.9778 13.0992 72.3069
lradius 32.7681
lwrist -14.5834
lhand -14.3633 -8.55231
lfingers 7.12502
lthumb 11.7788 21.0965
rfemur -2.68176 25.183 22.5271
rtibia 1.60083
rfoot -11.1274 -22.9791
rtoes 3.15041
lfemur 4.84512 -40.3838 -16.2213
ltibia -3.56664
lfoot -18.8435 50.359
ltoes 9.93005
166
root -0.564517 17.4792 8.20051 8.72441 -0.432843 -5.52317
lowerback 3.49447 0.732761 4.33356
upperback -10.6629 1.52643 0.641185
thorax -13.4905 0.317472 -1.94326
lowerneck -10.2786 -5.55801 -3.63034
upperneck 20.2346 -8.64207 7.19765
head 8.45792 -3.69254 2.09452
rclavicle -8.99501e-015 -1.59028e-015
rhumerus -50.3811 -5.53817 -80.5286
rradius 38.2982
rwrist 21.8896
rhand 17.7808 -32.2754
rfingers 7.12502
rthumb 42.4624 -56.7086
lclavicle -8.99501e-015 -1.59028e-015
lhumerus -53.5541 10.7704 74.3509
lradius 34.8751
lwrist -12.5152
lhand -13.9694 -8.19004
lfingers 7.12502
lthumb 12.1586 21.4366
rfemur -2.75372 25.0357 22.4882
rtibia 1.64225
rfoot -11.1345 -22.8835
rtoes 2.95547
lfemur 4.78497 -40.4433 -16.2002
ltibia -3.55227
lfoot -18.8168 50.3928
ltoes 9.75601
167
root -0.565546 17.4779 8.20426 8.73753 -0.36283 -5.50363
lowerback 3.53724 0.749946 4.32613
upperback -10.5825 1.54556 0.610658
thorax -13.419 0.328105 -1.97591
lowerneck -10.8098 -5.06386 -3.10141
upperneck 20.4678 -8.0003 6.94304
head 8.56237 -3.35354 1.98246
rclavicle 1.43622e-014 -1.70955e-014
rhumerus -51.0704 -4.30049 -81.4667
rradius 39.9189
rwrist 20.5274
rhand 17.4797 -32.4048
rfingers 7.12502
rthumb 42.1804 -56.9341
lclavicle 1.43622e-014 -1.70955e-014
lhumerus -54.1752 8.85964 76.0303
lradius 36.7882
lwrist -10.4353
lhand -13.8949 -8.52685
lfingers 7.12502
lthumb 12.2304 21.0955
rfemur -2.78926 24.8706 22.4632
rtibia 1.69525
rfoot -11.1517 -22.8123
rtoes 2.84901
lfemur 4.75243 -40.4367 -16.1944
ltibia -3.53722
lfoot -18.7587 50.3247
ltoes 9.56087
168
root -0.567734 17.477 8.20795 8.70866 -0.302028 -5.52583
lowerback 3.584 0.77923 4.34871
upperback -10.471 1.58628 0.605665
thorax -13.3118 0.349015 -2.00028
lowerneck -11.2776 -4.61082 -2.95195
upperneck 20.5896 -7.40574 6.99185
head 8.65253 -3.04078 2.03253
rclavicle 9.0447e-015 2.78299e-015
rhumerus -51.7309 -3.17511 -82.2735
rradius 41.469
rwrist 19.215
rhand 17.1587 -32.6913
rfingers 7.12502
rthumb 41.8796 -57.3215
lclavicle 9.0447e-015 2.78299e-015
lhumerus -54.8893 7.15712 77.5318
lradius 38.6793
lwrist -8.52436
lhand -13.9665 -9.13796
lfingers 7.12502
lthumb 12.1614 20.4885
rfemur -2.74586 24.8062 22.5241
rtibia 1.72549
rfoot -11.2302 -22.8007
rtoes 3.12494
lfemur 4.7505 -40.3328 -16.1432
ltibia -3.51285
lfoot -18.7308 50.1459
ltoes 9.50726
169
root -0.569719 17.4764 8.21069 8.71697 -0.25792 -5.55432
lowerback 3.58301 0.799818 4.34564
upperback -10.3857 1.613 0.62288
thorax -13.2082 0.367047 -1.98305
lowerneck -11.5955 -4.05724 -2.38667
upperneck 20.8445 -6.69146 6.70016
head 8.72783 -2.67458 1.91761
rclavicle 6.60959e-015 1.78906e-014
rhumerus -52.382 -2.16737 -82.9428
rradius 42.8811
rwrist 18.0897
rhand 16.9862 -33.0365
rfingers 7.12502
rthumb 41.7179 -57.7203
lclavicle 6.60959e-015 1.78906e-014
lhumerus -55.6893 5.88545 78.6768
lradius 40.3017
lwrist -6.93284
lhand -14.0989 -10.997
lfingers 7.12502
lthumb 12.0337 18.6371
rfemur -2.76144 24.7726 22.5592
rtibia 1.75636
rfoot -11.2804 -22.7892
rtoes 3.26758
lfemur 4.65021 -40.2085 -16.0364
ltibia -3.4425
lfoot -18.6857 49.9895
ltoes 9.48622
170
root -0.570135 17.4753 8.2133 8.72308 -0.19031 -5.53259
lowerback 3.61489 0.798153 4.29934
upperback -10.3206 1.60572 0.623705
thorax -13.1516 0.370642 -1.95558
lowerneck -11.9317 -3.60569 -2.08228
upperneck 21.1731 -6.11334 6.57627
head 8.85904 -2.37456 1.88792
rclavicle 5.61567e-015 -7.15625e-015
rhumerus -53.0708 -1.35753 -83.4887
rradius 44.2166
rwrist 17.2658
rhand 16.8946 -33.2825
rfingers 7.12502
rthumb 41.632 -57.9947
lclavicle 5.61567e-015 -7.15625e-015
lhumerus -56.5761 4.7594 79.7887
lradius 42.2148
lwrist -5.66368
lhand -13.8736 -11.0003
lfingers 7.12502
lthumb 12.251 18.6208
rfemur -2.77798 24.7092 22.5305
rtibia 1.78894
rfoot -11.2956 -22.7748
rtoes 3.02419
lfemur 4.57025 -40.1587 -16.0198
ltibia -3.37623
lfoot -18.6443 49.9059
ltoes 9.36656
